<svg xmlns="http://www.w3.org/2000/svg" xmlns:xlink="http://www.w3.org/1999/xlink" width="500" zoomAndPan="magnify" viewBox="0 0 375 374.999991" height="500" preserveAspectRatio="xMidYMid meet" version="1.0"><defs><g/><clipPath id="c3ec70fa77"><path d="M 242 140 L 267 140 L 267 169 L 242 169 Z M 242 140 " clip-rule="nonzero"/></clipPath><clipPath id="9fd9c48a37"><path d="M 248.753906 138.914062 L 270.496094 160.660156 L 252.996094 178.160156 L 231.253906 156.417969 Z M 248.753906 138.914062 " clip-rule="nonzero"/></clipPath><clipPath id="1d1a2bded0"><path d="M 248.753906 138.914062 L 270.496094 160.660156 L 252.996094 178.160156 L 231.253906 156.417969 Z M 248.753906 138.914062 " clip-rule="nonzero"/></clipPath><clipPath id="5d2f5f6bb2"><path d="M 248.753906 138.914062 L 270.496094 160.660156 L 252.996094 178.160156 L 231.253906 156.417969 Z M 248.753906 138.914062 " clip-rule="nonzero"/></clipPath><clipPath id="de17888732"><path d="M 247 140 L 267 140 L 267 164 L 247 164 Z M 247 140 " clip-rule="nonzero"/></clipPath><clipPath id="f77f27c0a1"><path d="M 248.753906 138.914062 L 270.496094 160.660156 L 252.996094 178.160156 L 231.253906 156.417969 Z M 248.753906 138.914062 " clip-rule="nonzero"/></clipPath><clipPath id="8fc4bcae3d"><path d="M 248.753906 138.914062 L 270.496094 160.660156 L 252.996094 178.160156 L 231.253906 156.417969 Z M 248.753906 138.914062 " clip-rule="nonzero"/></clipPath><clipPath id="e291853ff3"><path d="M 248.753906 138.914062 L 270.496094 160.660156 L 252.996094 178.160156 L 231.253906 156.417969 Z M 248.753906 138.914062 " clip-rule="nonzero"/></clipPath><clipPath id="b6d6c78af7"><path d="M 206 202 L 269 202 L 269 227 L 206 227 Z M 206 202 " clip-rule="nonzero"/></clipPath><clipPath id="9ea423a61c"><path d="M 203.089844 208.625 L 266.109375 194.878906 L 270.585938 215.398438 L 207.566406 229.140625 Z M 203.089844 208.625 " clip-rule="nonzero"/></clipPath><clipPath id="d9475c7bb8"><path d="M 203.089844 208.625 L 266.109375 194.878906 L 270.585938 215.398438 L 207.566406 229.140625 Z M 203.089844 208.625 " clip-rule="nonzero"/></clipPath><clipPath id="ef34994018"><path d="M 80.742188 139 L 105.492188 139 L 105.492188 163.664062 L 80.742188 163.664062 Z M 80.742188 139 " clip-rule="nonzero"/></clipPath><clipPath id="6332b0f360"><path d="M 113.65625 164.660156 L 141.40625 164.660156 L 141.40625 190.910156 L 113.65625 190.910156 Z M 113.65625 164.660156 " clip-rule="nonzero"/></clipPath></defs><g clip-path="url(#c3ec70fa77)"><g clip-path="url(#9fd9c48a37)"><g clip-path="url(#1d1a2bded0)"><g clip-path="url(#5d2f5f6bb2)"><path fill="#43b262" d="M 265.125 165.820312 C 263.980469 166.691406 262.570312 167.101562 261.148438 167.195312 C 259.3125 167.320312 257.378906 166.984375 255.691406 166.265625 C 254.542969 165.777344 253.4375 165.058594 252.679688 164.050781 C 252.441406 163.730469 252.164062 163.316406 252.054688 162.875 C 251.984375 162.890625 251.929688 162.917969 251.863281 162.929688 C 251.046875 163.191406 250.261719 163.5625 249.5 163.964844 C 247.914062 164.804688 246.382812 165.835938 244.960938 166.953125 C 244.878906 167.035156 244.796875 167.089844 244.714844 167.175781 C 244.699219 167.1875 244.660156 167.203125 244.644531 167.214844 C 244.203125 167.574219 243.746094 167.945312 243.320312 168.320312 C 243.304688 168.332031 243.304688 168.332031 243.277344 168.332031 C 243.277344 168.332031 243.277344 168.332031 243.265625 168.347656 C 243.222656 168.359375 243.183594 168.347656 243.15625 168.316406 C 242.976562 168.136719 242.796875 167.957031 242.628906 167.792969 C 242.585938 167.75 242.585938 167.667969 242.628906 167.625 C 243.332031 166.894531 244.105469 166.234375 244.90625 165.601562 C 245.277344 165.144531 245.636719 164.703125 245.992188 164.234375 C 247.042969 162.855469 248.007812 161.417969 248.777344 159.875 C 249.34375 158.730469 249.699219 157.515625 249.863281 156.269531 C 248.910156 155.898438 248.039062 155.21875 247.359375 154.484375 C 246.046875 153.089844 245.269531 151.265625 244.910156 149.386719 C 244.574219 147.644531 244.585938 145.808594 245.066406 144.082031 C 245.382812 142.964844 245.90625 141.832031 246.722656 140.992188 C 246.957031 140.757812 247.230469 140.507812 247.5625 140.398438 C 247.824219 140.304688 248.15625 140.332031 248.433594 140.359375 C 249.46875 140.484375 250.476562 140.996094 251.292969 141.675781 C 252.59375 142.753906 253.394531 144.300781 253.855469 145.917969 C 254.382812 147.824219 254.523438 149.925781 254.152344 151.871094 C 253.917969 153.15625 253.425781 154.425781 252.609375 155.433594 C 252.335938 155.761719 251.933594 156.164062 251.492188 156.382812 C 251.355469 157.265625 251.109375 158.125 250.695312 158.953125 C 249.925781 160.550781 249.015625 162.070312 247.96875 163.503906 C 248.339844 163.269531 248.726562 163.050781 249.125 162.84375 C 250.148438 162.292969 251.253906 161.742188 252.382812 161.46875 C 252.410156 161.46875 252.453125 161.453125 252.480469 161.453125 C 252.949219 160.792969 253.597656 160.253906 254.273438 159.828125 C 255.542969 159.027344 257.046875 158.628906 258.554688 158.589844 C 260.363281 158.523438 262.226562 158.871094 263.859375 159.703125 C 264.921875 160.242188 265.945312 161.015625 266.597656 162.027344 C 266.777344 162.316406 266.957031 162.632812 266.96875 162.980469 C 266.984375 163.242188 266.902344 163.492188 266.804688 163.726562 C 266.476562 164.554688 265.855469 165.285156 265.125 165.820312 Z M 265.125 165.820312 " fill-opacity="1" fill-rule="nonzero"/></g></g></g></g><g clip-path="url(#de17888732)"><g clip-path="url(#f77f27c0a1)"><g clip-path="url(#8fc4bcae3d)"><g clip-path="url(#e291853ff3)"><path fill="#6bce83" d="M 266.738281 163.738281 C 266.144531 163.695312 265.546875 163.652344 264.953125 163.585938 C 262.34375 163.375 259.734375 163.164062 257.125 162.953125 C 255.480469 162.824219 253.851562 162.683594 252.207031 162.558594 C 252.125 162.558594 252.082031 162.488281 252.082031 162.40625 C 252.121094 162.199219 252.164062 161.992188 252.207031 161.785156 C 252.207031 161.785156 252.21875 161.769531 252.21875 161.769531 C 252.21875 161.769531 252.21875 161.769531 252.234375 161.757812 C 252.234375 161.757812 252.246094 161.742188 252.246094 161.742188 C 252.261719 161.730469 252.261719 161.730469 252.273438 161.714844 C 252.289062 161.703125 252.300781 161.714844 252.316406 161.703125 C 252.316406 161.703125 252.328125 161.6875 252.34375 161.703125 C 252.9375 161.746094 253.53125 161.785156 254.125 161.855469 C 256.734375 162.066406 259.347656 162.277344 261.941406 162.503906 C 263.585938 162.628906 265.214844 162.769531 266.859375 162.894531 C 266.941406 162.898438 266.984375 162.964844 266.984375 163.046875 C 266.941406 163.253906 266.914062 163.449219 266.875 163.65625 C 266.847656 163.683594 266.792969 163.738281 266.738281 163.738281 Z M 250.3125 150.871094 C 249.726562 148.027344 249.171875 145.179688 248.585938 142.335938 C 248.460938 141.683594 248.335938 141.035156 248.210938 140.386719 C 248.183594 140.332031 248.140625 140.289062 248.085938 140.289062 C 247.878906 140.304688 247.671875 140.289062 247.464844 140.304688 C 247.382812 140.300781 247.328125 140.386719 247.339844 140.453125 C 247.703125 142.25 248.050781 144.03125 248.414062 145.828125 C 248.984375 148.660156 249.554688 151.492188 250.109375 154.339844 C 250.234375 154.988281 250.375 155.648438 250.5 156.300781 C 250.511719 156.339844 250.539062 156.367188 250.554688 156.382812 C 250.554688 156.382812 250.582031 156.382812 250.582031 156.382812 C 250.582031 156.382812 250.582031 156.382812 250.59375 156.394531 C 250.816406 156.398438 251.023438 156.382812 251.230469 156.398438 C 251.3125 156.398438 251.367188 156.316406 251.355469 156.246094 C 251.019531 154.449219 250.660156 152.652344 250.3125 150.871094 Z M 250.3125 150.871094 " fill-opacity="1" fill-rule="nonzero"/></g></g></g></g><g fill="#085e9d" fill-opacity="1"><g transform="translate(72.273859, 214.619547)"><g><path d="M 18.109375 0 C 16.691406 0 15.582031 -0.335938 14.78125 -1.015625 C 13.976562 -1.703125 13.394531 -2.59375 13.03125 -3.6875 C 12.664062 -4.78125 12.457031 -5.9375 12.40625 -7.15625 C 12.363281 -8.375 12.363281 -9.492188 12.40625 -10.515625 C 12.550781 -14.597656 12.769531 -18.660156 13.0625 -22.703125 C 13.351562 -26.742188 13.425781 -30.832031 13.28125 -34.96875 C 11.96875 -34.914062 10.546875 -34.878906 9.015625 -34.859375 C 7.484375 -34.835938 6.046875 -35.082031 4.703125 -35.59375 C 3.367188 -36.101562 2.359375 -37.0625 1.671875 -38.46875 C 0.992188 -39.882812 0.882812 -41.34375 1.34375 -42.84375 C 1.8125 -44.351562 2.773438 -45.425781 4.234375 -46.0625 C 5.347656 -46.59375 6.742188 -46.796875 8.421875 -46.671875 C 10.109375 -46.554688 11.816406 -46.363281 13.546875 -46.09375 C 15.273438 -45.832031 16.742188 -45.648438 17.953125 -45.546875 C 20.046875 -45.453125 22.257812 -45.425781 24.59375 -45.46875 C 26.9375 -45.519531 29.082031 -45.085938 31.03125 -44.171875 C 31.90625 -43.773438 32.644531 -43.160156 33.25 -42.328125 C 33.851562 -41.503906 34.203125 -40.601562 34.296875 -39.625 C 34.398438 -38.65625 34.113281 -37.734375 33.4375 -36.859375 C 32.800781 -36.035156 31.835938 -35.488281 30.546875 -35.21875 C 29.253906 -34.957031 27.914062 -34.835938 26.53125 -34.859375 C 25.144531 -34.878906 23.96875 -34.890625 23 -34.890625 C 23.144531 -33.921875 23.382812 -32.398438 23.71875 -30.328125 C 24.0625 -28.265625 24.390625 -25.929688 24.703125 -23.328125 C 25.023438 -20.722656 25.207031 -18.066406 25.25 -15.359375 C 25.300781 -12.660156 25.128906 -10.15625 24.734375 -7.84375 C 24.347656 -5.53125 23.632812 -3.65625 22.59375 -2.21875 C 21.550781 -0.789062 20.054688 -0.0507812 18.109375 0 Z M 18.109375 0 "/></g></g></g><g fill="#085e9d" fill-opacity="1"><g transform="translate(106.582042, 214.619547)"><g><path d="M 39.34375 -2.484375 C 37.738281 -0.921875 36.28125 -0.09375 34.96875 0 C 33.65625 0.09375 32.472656 -0.332031 31.421875 -1.28125 C 30.378906 -2.226562 29.46875 -3.476562 28.6875 -5.03125 C 27.90625 -6.59375 27.234375 -8.257812 26.671875 -10.03125 C 26.117188 -11.8125 25.671875 -13.492188 25.328125 -15.078125 C 24.984375 -16.660156 24.71875 -17.890625 24.53125 -18.765625 C 24.132812 -18.660156 23.460938 -18.535156 22.515625 -18.390625 C 21.566406 -18.242188 20.65625 -18.070312 19.78125 -17.875 C 18.90625 -17.6875 18.320312 -17.445312 18.03125 -17.15625 C 17.6875 -16.8125 17.488281 -16.140625 17.4375 -15.140625 C 17.394531 -14.148438 17.328125 -13.410156 17.234375 -12.921875 C 16.890625 -11.503906 16.507812 -10.066406 16.09375 -8.609375 C 15.675781 -7.148438 14.984375 -5.835938 14.015625 -4.671875 C 12.753906 -3.160156 11.304688 -2.269531 9.671875 -2 C 8.046875 -1.738281 6.523438 -2.046875 5.109375 -2.921875 C 3.703125 -3.796875 2.65625 -5.132812 1.96875 -6.9375 C 1.238281 -8.925781 0.945312 -11.140625 1.09375 -13.578125 C 1.238281 -16.015625 1.519531 -18.457031 1.9375 -20.90625 C 2.351562 -23.363281 2.632812 -25.617188 2.78125 -27.671875 C 3.019531 -31.023438 3.066406 -34.460938 2.921875 -37.984375 C 2.773438 -41.515625 2.96875 -44.914062 3.5 -48.1875 C 3.84375 -50.226562 4.671875 -51.84375 5.984375 -53.03125 C 7.296875 -54.226562 8.9375 -55.066406 10.90625 -55.546875 C 12.882812 -56.035156 15.015625 -56.265625 17.296875 -56.234375 C 19.585938 -56.210938 21.863281 -55.984375 24.125 -55.546875 C 26.382812 -55.109375 28.460938 -54.535156 30.359375 -53.828125 C 32.265625 -53.128906 33.828125 -52.390625 35.046875 -51.609375 C 37.617188 -49.953125 39.460938 -48.003906 40.578125 -45.765625 C 41.703125 -43.523438 42.203125 -41.1875 42.078125 -38.75 C 41.960938 -36.320312 41.296875 -33.925781 40.078125 -31.5625 C 38.859375 -29.207031 37.226562 -27.082031 35.1875 -25.1875 C 36.0625 -23.820312 37.046875 -22.164062 38.140625 -20.21875 C 39.234375 -18.269531 40.144531 -16.210938 40.875 -14.046875 C 41.601562 -11.878906 41.921875 -9.785156 41.828125 -7.765625 C 41.734375 -5.753906 40.90625 -3.992188 39.34375 -2.484375 Z M 16.859375 -27.890625 C 18.273438 -28.421875 19.660156 -29.003906 21.015625 -29.640625 C 22.378906 -30.273438 23.671875 -31.03125 24.890625 -31.90625 C 26.492188 -33.019531 27.394531 -34.125 27.59375 -35.21875 C 27.789062 -36.3125 27.523438 -37.304688 26.796875 -38.203125 C 26.066406 -39.109375 25.066406 -39.816406 23.796875 -40.328125 C 22.535156 -40.835938 21.222656 -41.046875 19.859375 -40.953125 C 18.785156 -40.898438 17.894531 -40.800781 17.1875 -40.65625 C 16.488281 -40.507812 15.988281 -39.953125 15.6875 -38.984375 C 15.394531 -38.109375 15.332031 -36.972656 15.5 -35.578125 C 15.675781 -34.191406 15.921875 -32.804688 16.234375 -31.421875 C 16.554688 -30.035156 16.765625 -28.859375 16.859375 -27.890625 Z M 16.859375 -27.890625 "/></g></g></g><g fill="#085e9d" fill-opacity="1"><g transform="translate(149.722763, 214.619547)"><g><path d="M 10.359375 -1.53125 C 8.367188 -2.550781 6.835938 -3.9375 5.765625 -5.6875 C 4.691406 -7.445312 3.910156 -9.382812 3.421875 -11.5 C 2.941406 -13.613281 2.601562 -15.773438 2.40625 -17.984375 C 2.207031 -20.203125 1.988281 -22.257812 1.75 -24.15625 C 1.601562 -25.425781 1.457031 -26.972656 1.3125 -28.796875 C 1.164062 -30.617188 1.128906 -32.515625 1.203125 -34.484375 C 1.273438 -36.460938 1.566406 -38.3125 2.078125 -40.03125 C 2.585938 -41.757812 3.425781 -43.160156 4.59375 -44.234375 C 5.757812 -45.304688 7.367188 -45.84375 9.421875 -45.84375 C 11.023438 -45.84375 12.300781 -45.414062 13.25 -44.5625 C 14.195312 -43.707031 14.890625 -42.613281 15.328125 -41.28125 C 15.765625 -39.945312 16.046875 -38.507812 16.171875 -36.96875 C 16.296875 -35.4375 16.332031 -33.941406 16.28125 -32.484375 C 16.226562 -31.023438 16.179688 -29.757812 16.140625 -28.6875 C 16.085938 -26.445312 16.023438 -24.035156 15.953125 -21.453125 C 15.878906 -18.878906 16.253906 -16.519531 17.078125 -14.375 C 17.617188 -13.0625 18.328125 -12.085938 19.203125 -11.453125 C 20.078125 -10.828125 20.972656 -10.644531 21.890625 -10.90625 C 22.816406 -11.175781 23.625 -11.992188 24.3125 -13.359375 C 25.238281 -15.210938 25.757812 -17.21875 25.875 -19.375 C 26 -21.539062 26.0625 -23.625 26.0625 -25.625 C 26.0625 -26.988281 25.953125 -28.445312 25.734375 -30 C 25.515625 -31.5625 25.351562 -33.117188 25.25 -34.671875 C 25.15625 -36.234375 25.304688 -37.644531 25.703125 -38.90625 C 26.085938 -40.070312 26.691406 -41.054688 27.515625 -41.859375 C 28.347656 -42.660156 29.296875 -43.125 30.359375 -43.25 C 31.429688 -43.375 32.503906 -42.972656 33.578125 -42.046875 C 34.453125 -41.316406 35.0625 -40.40625 35.40625 -39.3125 C 35.75 -38.21875 35.941406 -37.070312 35.984375 -35.875 C 36.035156 -34.6875 36.035156 -33.582031 35.984375 -32.5625 C 36.035156 -30.5625 36.0625 -28.332031 36.0625 -25.875 C 36.0625 -23.414062 35.9375 -20.910156 35.6875 -18.359375 C 35.445312 -15.804688 34.972656 -13.394531 34.265625 -11.125 C 33.566406 -8.863281 32.535156 -6.929688 31.171875 -5.328125 C 30.097656 -4.066406 28.695312 -3.007812 26.96875 -2.15625 C 25.238281 -1.300781 23.375 -0.703125 21.375 -0.359375 C 19.382812 -0.0234375 17.414062 0.0546875 15.46875 -0.109375 C 13.53125 -0.273438 11.828125 -0.75 10.359375 -1.53125 Z M 10.359375 -1.53125 "/></g></g></g><g fill="#085e9d" fill-opacity="1"><g transform="translate(186.950792, 214.619547)"><g><path d="M 3.4375 -1.390625 C 2.601562 -2.316406 2.015625 -3.507812 1.671875 -4.96875 C 1.335938 -6.425781 1.15625 -7.992188 1.125 -9.671875 C 1.101562 -11.347656 1.148438 -12.976562 1.265625 -14.5625 C 1.390625 -16.144531 1.476562 -17.492188 1.53125 -18.609375 C 1.625 -19.929688 1.671875 -21.523438 1.671875 -23.390625 C 1.671875 -25.265625 1.734375 -27.25 1.859375 -29.34375 C 1.984375 -31.4375 2.238281 -33.476562 2.625 -35.46875 C 3.019531 -37.46875 3.617188 -39.222656 4.421875 -40.734375 C 5.222656 -42.242188 6.304688 -43.335938 7.671875 -44.015625 C 9.128906 -44.742188 10.570312 -44.9375 12 -44.59375 C 13.4375 -44.257812 14.765625 -43.617188 15.984375 -42.671875 C 17.203125 -41.722656 18.175781 -40.640625 18.90625 -39.421875 C 20.320312 -37.179688 21.523438 -34.867188 22.515625 -32.484375 C 23.515625 -30.097656 24.742188 -27.765625 26.203125 -25.484375 C 26.160156 -26.648438 26.050781 -27.972656 25.875 -29.453125 C 25.707031 -30.941406 25.625 -32.453125 25.625 -33.984375 C 25.625 -35.515625 25.804688 -36.972656 26.171875 -38.359375 C 26.535156 -39.742188 27.179688 -40.925781 28.109375 -41.90625 C 29.328125 -43.164062 30.613281 -43.804688 31.96875 -43.828125 C 33.332031 -43.859375 34.550781 -43.421875 35.625 -42.515625 C 36.695312 -41.617188 37.328125 -40.34375 37.515625 -38.6875 C 37.859375 -36.445312 38.164062 -33.890625 38.4375 -31.015625 C 38.707031 -28.148438 38.828125 -25.207031 38.796875 -22.1875 C 38.773438 -19.175781 38.546875 -16.257812 38.109375 -13.4375 C 37.671875 -10.613281 36.941406 -8.101562 35.921875 -5.90625 C 34.796875 -3.53125 33.5625 -2.132812 32.21875 -1.71875 C 30.882812 -1.300781 29.488281 -1.554688 28.03125 -2.484375 C 26.570312 -3.410156 25.132812 -4.75 23.71875 -6.5 C 22.3125 -8.25 20.988281 -10.117188 19.75 -12.109375 C 18.507812 -14.109375 17.410156 -15.957031 16.453125 -17.65625 C 15.503906 -19.363281 14.789062 -20.632812 14.3125 -21.46875 C 14.207031 -20.976562 14.019531 -19.976562 13.75 -18.46875 C 13.488281 -16.957031 13.140625 -15.226562 12.703125 -13.28125 C 12.265625 -11.332031 11.753906 -9.410156 11.171875 -7.515625 C 10.585938 -5.617188 9.914062 -3.988281 9.15625 -2.625 C 8.40625 -1.257812 7.554688 -0.40625 6.609375 -0.0625 C 5.660156 0.269531 4.601562 -0.171875 3.4375 -1.390625 Z M 3.4375 -1.390625 "/></g></g></g><g fill="#085e9d" fill-opacity="1"><g transform="translate(226.879683, 214.619547)"><g><path d="M 19.859375 0.796875 C 19.078125 -0.515625 18.550781 -2.007812 18.28125 -3.6875 C 18.019531 -5.363281 17.910156 -7.050781 17.953125 -8.75 C 18.003906 -10.457031 18.03125 -12.039062 18.03125 -13.5 C 15.695312 -13.3125 13.347656 -13.347656 10.984375 -13.609375 C 8.628906 -13.878906 6.570312 -14.5 4.8125 -15.46875 C 3.0625 -16.445312 1.894531 -17.847656 1.3125 -19.671875 C 0.726562 -21.492188 1.09375 -23.867188 2.40625 -26.796875 C 3.476562 -29.128906 4.460938 -31.472656 5.359375 -33.828125 C 6.265625 -36.191406 7.15625 -38.59375 8.03125 -41.03125 C 8.613281 -42.726562 9.171875 -44.488281 9.703125 -46.3125 C 10.242188 -48.144531 11 -49.8125 11.96875 -51.3125 C 12.601562 -52.289062 13.476562 -53.144531 14.59375 -53.875 C 15.71875 -54.601562 16.875 -54.953125 18.0625 -54.921875 C 19.257812 -54.898438 20.269531 -54.234375 21.09375 -52.921875 C 21.820312 -51.847656 21.992188 -50.628906 21.609375 -49.265625 C 21.222656 -47.910156 20.625 -46.597656 19.8125 -45.328125 C 19.007812 -44.066406 18.34375 -42.972656 17.8125 -42.046875 C 17.226562 -41.023438 16.546875 -39.832031 15.765625 -38.46875 C 14.984375 -37.101562 14.300781 -35.703125 13.71875 -34.265625 C 13.132812 -32.835938 12.832031 -31.515625 12.8125 -30.296875 C 12.789062 -29.078125 13.203125 -28.078125 14.046875 -27.296875 C 14.898438 -26.523438 16.375 -26.113281 18.46875 -26.0625 C 18.519531 -27.425781 18.566406 -28.921875 18.609375 -30.546875 C 18.660156 -32.179688 18.832031 -33.800781 19.125 -35.40625 C 19.414062 -37.007812 19.953125 -38.394531 20.734375 -39.5625 C 21.367188 -40.4375 22.171875 -41.15625 23.140625 -41.71875 C 24.109375 -42.28125 25.128906 -42.546875 26.203125 -42.515625 C 27.273438 -42.492188 28.222656 -42 29.046875 -41.03125 C 29.785156 -40.25 30.238281 -39.101562 30.40625 -37.59375 C 30.570312 -36.082031 30.617188 -34.546875 30.546875 -32.984375 C 30.472656 -31.429688 30.4375 -30.171875 30.4375 -29.203125 C 30.488281 -28.222656 30.488281 -27.503906 30.4375 -27.046875 C 30.394531 -26.585938 30.46875 -26.234375 30.65625 -25.984375 C 30.851562 -25.742188 31.316406 -25.425781 32.046875 -25.03125 C 32.722656 -24.695312 33.414062 -24.515625 34.125 -24.484375 C 34.832031 -24.460938 35.523438 -24.378906 36.203125 -24.234375 C 36.890625 -24.085938 37.523438 -23.648438 38.109375 -22.921875 C 39.179688 -21.660156 39.59375 -20.550781 39.34375 -19.59375 C 39.101562 -18.644531 38.519531 -17.816406 37.59375 -17.109375 C 36.664062 -16.410156 35.640625 -15.804688 34.515625 -15.296875 C 33.398438 -14.785156 32.476562 -14.3125 31.75 -13.875 C 31.164062 -13.53125 30.789062 -13.332031 30.625 -13.28125 C 30.457031 -13.238281 30.375 -13.144531 30.375 -13 C 30.375 -12.851562 30.25 -12.390625 30 -11.609375 C 29.8125 -10.878906 29.71875 -10.050781 29.71875 -9.125 C 29.71875 -8.195312 29.664062 -7.34375 29.5625 -6.5625 C 29.46875 -5.539062 29.367188 -4.46875 29.265625 -3.34375 C 29.171875 -2.226562 28.929688 -1.1875 28.546875 -0.21875 C 28.003906 1.1875 27.207031 2.21875 26.15625 2.875 C 25.113281 3.539062 24.019531 3.710938 22.875 3.390625 C 21.738281 3.078125 20.734375 2.210938 19.859375 0.796875 Z M 19.859375 0.796875 "/></g></g></g><g fill="#085e9d" fill-opacity="1"><g transform="translate(267.31953, 214.619547)"><g><path d="M 12.125 -0.140625 C 11.144531 -0.140625 10.09375 -0.101562 8.96875 -0.03125 C 7.851562 0.0390625 6.769531 -0.03125 5.71875 -0.25 C 4.675781 -0.46875 3.742188 -0.96875 2.921875 -1.75 C 2.046875 -2.625 1.507812 -3.671875 1.3125 -4.890625 C 1.113281 -6.109375 1.0625 -7.382812 1.15625 -8.71875 C 1.257812 -10.0625 1.335938 -11.269531 1.390625 -12.34375 C 1.484375 -14.425781 1.578125 -16.503906 1.671875 -18.578125 C 1.773438 -20.648438 1.875 -22.726562 1.96875 -24.8125 C 2.0625 -27.25 2.171875 -29.695312 2.296875 -32.15625 C 2.421875 -34.613281 2.507812 -37.0625 2.5625 -39.5 C 2.65625 -40.851562 2.648438 -42.359375 2.546875 -44.015625 C 2.453125 -45.671875 2.648438 -47.15625 3.140625 -48.46875 C 3.578125 -49.6875 4.390625 -50.597656 5.578125 -51.203125 C 6.773438 -51.816406 8.175781 -52.207031 9.78125 -52.375 C 11.382812 -52.550781 13.050781 -52.578125 14.78125 -52.453125 C 16.507812 -52.328125 18.140625 -52.15625 19.671875 -51.9375 C 21.203125 -51.71875 22.457031 -51.535156 23.4375 -51.390625 C 24.550781 -51.242188 25.617188 -51.023438 26.640625 -50.734375 C 27.660156 -50.441406 28.523438 -49.96875 29.234375 -49.3125 C 29.941406 -48.65625 30.367188 -47.671875 30.515625 -46.359375 C 30.710938 -44.992188 30.492188 -43.75 29.859375 -42.625 C 29.222656 -41.507812 28.273438 -40.6875 27.015625 -40.15625 C 26.035156 -39.757812 25.054688 -39.632812 24.078125 -39.78125 C 23.109375 -39.925781 22.132812 -40.097656 21.15625 -40.296875 C 20.1875 -40.492188 19.242188 -40.46875 18.328125 -40.21875 C 17.742188 -40.125 17.15625 -39.734375 16.5625 -39.046875 C 15.976562 -38.367188 15.648438 -37.613281 15.578125 -36.78125 C 15.503906 -35.957031 15.882812 -35.234375 16.71875 -34.609375 C 17.351562 -34.160156 18.253906 -33.960938 19.421875 -34.015625 C 20.585938 -34.066406 21.789062 -34.140625 23.03125 -34.234375 C 24.269531 -34.335938 25.28125 -34.238281 26.0625 -33.9375 C 27.320312 -33.457031 28.207031 -32.828125 28.71875 -32.046875 C 29.226562 -31.265625 29.535156 -30.242188 29.640625 -28.984375 C 29.835938 -27.472656 29.691406 -25.953125 29.203125 -24.421875 C 28.710938 -22.890625 27.664062 -21.878906 26.0625 -21.390625 C 25.082031 -21.148438 24.035156 -21.160156 22.921875 -21.421875 C 21.804688 -21.691406 20.710938 -21.882812 19.640625 -22 C 18.566406 -22.125 17.617188 -21.800781 16.796875 -21.03125 C 15.765625 -20.050781 15.332031 -19.179688 15.5 -18.421875 C 15.675781 -17.671875 16.203125 -17.023438 17.078125 -16.484375 C 17.953125 -15.953125 18.910156 -15.539062 19.953125 -15.25 C 21.003906 -14.957031 21.875 -14.789062 22.5625 -14.75 C 23.582031 -14.695312 24.695312 -14.707031 25.90625 -14.78125 C 27.125 -14.851562 28.316406 -14.828125 29.484375 -14.703125 C 30.660156 -14.585938 31.6875 -14.1875 32.5625 -13.5 C 33.382812 -12.914062 33.90625 -12.085938 34.125 -11.015625 C 34.34375 -9.953125 34.378906 -8.867188 34.234375 -7.765625 C 34.085938 -6.671875 33.867188 -5.710938 33.578125 -4.890625 C 32.847656 -3.085938 31.800781 -1.929688 30.4375 -1.421875 C 29.070312 -0.910156 27.46875 -0.609375 25.625 -0.515625 C 23.382812 -0.410156 21.144531 -0.347656 18.90625 -0.328125 C 16.664062 -0.304688 14.40625 -0.242188 12.125 -0.140625 Z M 12.125 -0.140625 "/></g></g></g><g clip-path="url(#b6d6c78af7)"><g clip-path="url(#9ea423a61c)"><g clip-path="url(#d9475c7bb8)"><path fill="#cc3845" d="M 264.214844 203.792969 C 261.242188 202.042969 257.550781 202.246094 254.5 203.675781 C 254.285156 203.777344 254.070312 203.886719 253.855469 204 C 252.664062 203.132812 251.277344 202.539062 249.84375 202.304688 C 246.933594 201.824219 243.929688 202.722656 241.503906 204.335938 C 241.234375 204.515625 240.96875 204.703125 240.710938 204.902344 C 238.84375 203.710938 236.667969 202.988281 234.472656 202.796875 C 231.234375 202.515625 228.058594 203.546875 225.523438 205.566406 C 224.730469 206.199219 224.003906 206.914062 223.355469 207.699219 C 222.695312 207.585938 222.015625 207.550781 221.34375 207.589844 C 218 207.777344 214.832031 209.582031 212.480469 211.890625 C 210.058594 214.273438 208.28125 217.347656 207.441406 220.644531 C 206.957031 222.546875 206.828125 224.507812 206.984375 226.460938 C 206.988281 226.523438 207.035156 226.582031 207.105469 226.566406 C 207.898438 226.394531 208.6875 226.21875 209.480469 226.046875 C 209.484375 226.046875 209.488281 226.042969 209.492188 226.042969 C 209.53125 226.035156 209.566406 226.007812 209.5625 225.953125 C 209.183594 221.175781 211.371094 216.417969 214.917969 213.265625 C 216.765625 211.625 219.167969 210.257812 221.691406 210.183594 C 221.085938 211.3125 220.625 212.511719 220.335938 213.753906 C 219.597656 216.917969 219.882812 220.753906 222.222656 223.21875 C 223.277344 224.324219 224.695312 225.042969 226.246094 224.917969 C 227.660156 224.804688 228.953125 224.035156 229.828125 222.9375 C 230.90625 221.589844 231.234375 219.867188 231.027344 218.179688 C 230.910156 217.226562 230.636719 216.304688 230.320312 215.398438 C 229.972656 214.414062 229.617188 213.425781 229.167969 212.484375 C 228.445312 210.957031 227.457031 209.570312 226.007812 208.679688 C 226.890625 207.765625 227.921875 206.992188 229.070312 206.4375 C 232.09375 204.976562 235.796875 205.15625 238.710938 206.757812 C 237.582031 208.023438 236.6875 209.492188 236.152344 211.097656 C 235.621094 212.679688 235.417969 214.417969 235.988281 216.023438 C 236.5625 217.640625 237.914062 218.917969 239.566406 219.410156 C 241.019531 219.839844 242.632812 219.582031 243.816406 218.613281 C 244.894531 217.726562 245.5 216.386719 245.75 215.039062 C 246.324219 211.972656 245.074219 208.859375 242.925781 206.679688 C 242.90625 206.660156 242.882812 206.640625 242.863281 206.621094 C 243.859375 205.929688 244.964844 205.394531 246.132812 205.089844 C 247.363281 204.769531 248.675781 204.699219 249.917969 205 C 250.46875 205.136719 251 205.347656 251.496094 205.621094 C 249.882812 207.023438 248.667969 208.871094 248.53125 211.023438 C 248.417969 212.828125 249.257812 214.511719 250.839844 215.421875 C 252.207031 216.210938 253.925781 216.296875 255.277344 215.425781 C 257.53125 213.96875 257.824219 210.65625 257.066406 208.308594 C 256.792969 207.460938 256.375 206.675781 255.847656 205.964844 C 259.042969 204.628906 263.273438 204.984375 265.109375 208.28125 C 265.738281 209.417969 265.984375 210.703125 265.660156 211.976562 C 265.648438 212.027344 265.671875 212.085938 265.726562 212.105469 C 266.496094 212.355469 267.269531 212.605469 268.039062 212.855469 C 268.089844 212.871094 268.152344 212.84375 268.167969 212.789062 C 269.082031 209.28125 267.292969 205.601562 264.214844 203.792969 Z M 253.570312 207.339844 C 254.214844 208.128906 254.707031 209.097656 254.804688 210.109375 C 254.890625 211.03125 254.6875 212.128906 254.101562 212.867188 C 253.832031 213.210938 253.449219 213.457031 253 213.4375 C 252.464844 213.414062 251.929688 213.066406 251.582031 212.675781 C 250.863281 211.871094 251.082031 210.757812 251.523438 209.871094 C 252.007812 208.894531 252.726562 208.039062 253.570312 207.339844 Z M 239.976562 209.476562 C 240.25 209.09375 240.550781 208.722656 240.871094 208.367188 C 241.277344 208.773438 241.652344 209.214844 241.980469 209.699219 C 243.164062 211.433594 243.792969 213.863281 242.738281 215.816406 C 242.28125 216.671875 241.472656 217.148438 240.496094 216.9375 C 239.507812 216.726562 238.738281 216.0625 238.460938 215.082031 C 237.914062 213.144531 238.875 211.023438 239.976562 209.476562 Z M 224.394531 210.761719 C 224.957031 211.070312 225.457031 211.5 225.871094 212.042969 C 226.558594 212.945312 226.996094 214.027344 227.4375 215.066406 C 228.191406 216.835938 229.066406 219.1875 228 221.011719 C 227.386719 222.054688 226.277344 222.644531 225.125 222.082031 C 224.054688 221.558594 223.332031 220.460938 222.964844 219.363281 C 222.121094 216.839844 222.730469 213.917969 223.917969 211.605469 C 224.0625 211.320312 224.222656 211.039062 224.394531 210.761719 Z M 224.394531 210.761719 " fill-opacity="1" fill-rule="nonzero"/></g></g></g><g clip-path="url(#ef34994018)"><path fill="#2da43e" d="M 105.640625 150.53125 C 105.628906 150.535156 105.613281 150.535156 105.601562 150.539062 C 105.296875 150.632812 104.96875 150.675781 104.65625 150.738281 C 103.996094 150.878906 103.335938 151.019531 102.671875 151.160156 C 101.144531 151.484375 99.617188 151.808594 98.089844 152.136719 C 99.636719 153.09375 101.179688 154.054688 102.726562 155.011719 C 103.425781 155.445312 104.121094 155.878906 104.820312 156.3125 C 104.871094 156.34375 104.902344 156.425781 104.863281 156.480469 C 104.199219 157.457031 103.539062 158.429688 102.875 159.40625 C 102.839844 159.457031 102.765625 159.488281 102.707031 159.449219 C 102.695312 159.441406 102.683594 159.433594 102.671875 159.425781 C 102.390625 159.277344 102.128906 159.074219 101.863281 158.902344 C 101.296875 158.535156 100.730469 158.164062 100.164062 157.796875 C 98.890625 156.972656 97.621094 156.144531 96.351562 155.320312 C 96.855469 157.035156 97.363281 158.75 97.867188 160.464844 C 98.097656 161.253906 98.332031 162.039062 98.5625 162.828125 C 98.582031 162.890625 98.539062 162.964844 98.476562 162.980469 C 97.332031 163.265625 96.191406 163.550781 95.046875 163.839844 C 94.980469 163.855469 94.914062 163.816406 94.894531 163.75 C 94.890625 163.738281 94.886719 163.722656 94.882812 163.710938 C 94.777344 163.410156 94.714844 163.089844 94.628906 162.78125 C 94.453125 162.128906 94.273438 161.476562 94.097656 160.824219 C 93.671875 159.265625 93.246094 157.703125 92.820312 156.140625 C 91.941406 157.753906 91.0625 159.367188 90.183594 160.980469 C 89.792969 161.699219 89.398438 162.421875 89.007812 163.140625 C 88.976562 163.199219 88.894531 163.21875 88.839844 163.1875 C 87.828125 162.578125 86.816406 161.972656 85.804688 161.367188 C 85.75 161.332031 85.730469 161.257812 85.761719 161.199219 C 85.769531 161.1875 85.777344 161.175781 85.78125 161.160156 C 85.921875 160.875 86.101562 160.601562 86.261719 160.324219 C 86.597656 159.738281 86.933594 159.152344 87.269531 158.566406 C 88.164062 156.996094 89.058594 155.429688 89.957031 153.863281 C 89.859375 153.882812 89.757812 153.90625 89.660156 153.925781 C 87.738281 154.335938 85.816406 154.742188 83.894531 155.152344 C 83.089844 155.320312 82.289062 155.492188 81.484375 155.664062 C 81.472656 155.664062 81.460938 155.664062 81.449219 155.664062 C 81.398438 155.667969 81.34375 155.644531 81.332031 155.578125 C 81.136719 154.585938 80.941406 153.597656 80.746094 152.605469 C 80.734375 152.542969 80.761719 152.46875 80.832031 152.453125 C 80.84375 152.449219 80.859375 152.449219 80.871094 152.445312 C 81.171875 152.34375 81.5 152.296875 81.808594 152.226562 C 82.472656 152.070312 83.136719 151.914062 83.800781 151.757812 C 85.53125 151.355469 87.265625 150.949219 88.996094 150.542969 C 87.351562 149.476562 85.707031 148.40625 84.0625 147.339844 C 83.375 146.890625 82.6875 146.445312 81.996094 145.996094 C 81.984375 145.988281 81.976562 145.980469 81.96875 145.96875 C 81.933594 145.933594 81.917969 145.882812 81.953125 145.828125 C 82.515625 144.988281 83.078125 144.152344 83.636719 143.3125 C 83.675781 143.257812 83.75 143.230469 83.808594 143.269531 C 83.820312 143.273438 83.832031 143.285156 83.84375 143.289062 C 84.125 143.433594 84.390625 143.628906 84.660156 143.796875 C 85.238281 144.15625 85.816406 144.515625 86.398438 144.875 C 87.742188 145.710938 89.089844 146.546875 90.433594 147.382812 C 89.972656 145.6875 89.511719 143.996094 89.050781 142.300781 C 88.835938 141.507812 88.621094 140.71875 88.402344 139.925781 C 88.394531 139.894531 88.398438 139.867188 88.410156 139.847656 C 88.421875 139.8125 88.445312 139.785156 88.488281 139.773438 C 89.46875 139.519531 90.445312 139.269531 91.421875 139.019531 C 91.488281 139 91.554688 139.039062 91.574219 139.105469 C 91.578125 139.117188 91.582031 139.132812 91.585938 139.144531 C 91.699219 139.441406 91.769531 139.761719 91.859375 140.066406 C 92.050781 140.722656 92.242188 141.375 92.4375 142.027344 C 92.921875 143.675781 93.40625 145.328125 93.894531 146.976562 C 94.863281 145.285156 95.828125 143.59375 96.796875 141.898438 C 97.203125 141.1875 97.613281 140.472656 98.019531 139.761719 C 98.039062 139.730469 98.0625 139.714844 98.089844 139.707031 C 98.089844 139.703125 98.09375 139.703125 98.09375 139.703125 C 98.097656 139.703125 98.101562 139.703125 98.105469 139.703125 C 98.132812 139.695312 98.160156 139.699219 98.191406 139.714844 C 99.058594 140.230469 99.929688 140.742188 100.796875 141.257812 C 100.855469 141.292969 100.875 141.367188 100.839844 141.425781 C 100.835938 141.4375 100.828125 141.449219 100.820312 141.460938 C 100.6875 141.75 100.511719 142.027344 100.359375 142.308594 C 100.035156 142.90625 99.707031 143.503906 99.382812 144.101562 C 98.546875 145.632812 97.710938 147.167969 96.878906 148.699219 C 98.757812 148.261719 100.636719 147.820312 102.515625 147.378906 C 103.3125 147.195312 104.113281 147.007812 104.914062 146.820312 C 104.972656 146.804688 105.050781 146.839844 105.066406 146.90625 C 105.285156 148.0625 105.507812 149.222656 105.726562 150.378906 C 105.738281 150.441406 105.710938 150.515625 105.640625 150.53125 Z M 105.640625 150.53125 " fill-opacity="1" fill-rule="nonzero"/></g><g clip-path="url(#6332b0f360)"><path fill="#e86060" d="M 141.066406 184.582031 C 140.707031 185.808594 139.878906 186.835938 138.757812 187.472656 C 136.605469 188.695312 133.59375 188.484375 131.804688 186.726562 C 131.6875 187.988281 130.90625 189.097656 129.867188 189.820312 C 128.707031 190.628906 127.253906 190.886719 125.859375 190.824219 C 125.109375 190.789062 124.367188 190.667969 123.640625 190.492188 C 122.972656 190.332031 122.304688 190.125 121.710938 189.773438 C 119.449219 188.425781 119.675781 185.558594 120.035156 183.320312 C 118.695312 183.359375 117.273438 183.324219 116.015625 182.808594 C 114.847656 182.332031 114.011719 181.386719 113.839844 180.132812 C 113.660156 178.828125 114.082031 177.433594 114.660156 176.269531 C 115.136719 175.308594 115.824219 174.457031 116.722656 173.851562 C 117.699219 173.191406 118.855469 172.878906 120.023438 172.777344 C 119.316406 171.542969 119.148438 170.039062 119.554688 168.675781 C 120.273438 166.253906 122.808594 164.691406 125.332031 165.003906 C 127.976562 165.328125 130.058594 167.328125 131.847656 169.109375 C 131.871094 169.132812 131.878906 169.164062 131.871094 169.1875 L 132.222656 169.230469 C 132.222656 169.199219 132.234375 169.171875 132.269531 169.15625 C 133.441406 168.550781 134.726562 168.085938 136.039062 167.894531 C 137.101562 167.742188 138.289062 167.753906 139.230469 168.335938 C 139.746094 168.660156 140.101562 169.136719 140.394531 169.660156 C 140.734375 170.265625 140.957031 170.929688 141.023438 171.621094 C 141.261719 174.066406 139.570312 176.050781 138.179688 177.886719 C 139.441406 178.484375 140.375 179.601562 140.871094 180.882812 C 141.320312 182.050781 141.417969 183.375 141.066406 184.582031 Z M 141.066406 184.582031 " fill-opacity="1" fill-rule="nonzero"/></g><path fill="#ffcb64" d="M 133.613281 176.925781 C 133.613281 177.160156 133.589844 177.394531 133.546875 177.625 C 133.128906 179.746094 130.988281 181.0625 128.957031 181.378906 C 126.753906 181.722656 124.214844 181.074219 122.816406 179.269531 C 122.214844 178.496094 121.898438 177.523438 122.003906 176.546875 C 122.105469 175.582031 122.601562 174.707031 123.304688 174.039062 C 124.980469 172.449219 127.609375 172.03125 129.796875 172.65625 C 131.757812 173.21875 133.601562 174.777344 133.613281 176.925781 Z M 133.613281 176.925781 " fill-opacity="1" fill-rule="nonzero"/></svg>